<svg width="111" height="28" viewBox="0 0 111 28" fill="none" xmlns="http://www.w3.org/2000/svg">
<rect width="111" height="28" fill="white"/>
<rect width="60" height="28" rx="5" fill="#EFF3F8"/>
<path d="M65.1641 19C65.0859 19 65.0208 18.9531 64.9688 18.8594C64.9219 18.7656 64.8984 18.6797 64.8984 18.6016C64.8984 18.513 64.9167 18.4453 64.9531 18.3984C64.9896 18.3516 65.0573 18.3229 65.1562 18.3125C65.849 18.2604 66.1953 18.0938 66.1953 17.8125V9.35938C66.1953 9.15104 66.138 8.99479 66.0234 8.89062C65.9089 8.78646 65.7812 8.72135 65.6406 8.69531C65.5052 8.66406 65.3099 8.63281 65.0547 8.60156C64.9401 8.59115 64.8646 8.57031 64.8281 8.53906C64.7917 8.5026 64.7734 8.42708 64.7734 8.3125C64.7734 8.23438 64.7969 8.14844 64.8438 8.05469C64.8958 7.96094 64.9609 7.91406 65.0391 7.91406H67.1562C67.5625 7.91406 68.1042 7.89844 68.7812 7.86719C68.9115 7.86198 69.1172 7.85417 69.3984 7.84375C69.6849 7.83333 69.9349 7.82812 70.1484 7.82812C71.3984 7.82812 72.3958 8.08854 73.1406 8.60938C73.8906 9.13021 74.2656 9.96354 74.2656 11.1094C74.2656 11.8177 74.099 12.4401 73.7656 12.9766C73.4375 13.5078 72.9453 13.9219 72.2891 14.2188C71.6328 14.5156 70.8307 14.6641 69.8828 14.6641H68.4766V17.5547C68.4766 17.7578 68.5703 17.9141 68.7578 18.0234C68.9453 18.1276 69.151 18.1979 69.375 18.2344C69.599 18.2656 69.8776 18.2917 70.2109 18.3125C70.3255 18.3229 70.401 18.3464 70.4375 18.3828C70.474 18.4141 70.4922 18.487 70.4922 18.6016C70.4922 18.6797 70.4661 18.7656 70.4141 18.8594C70.3672 18.9531 70.3047 19 70.2266 19H65.1641ZM69.5 13.9375C69.8594 13.9375 70.2083 13.8542 70.5469 13.6875C70.8906 13.5208 71.1771 13.2396 71.4062 12.8438C71.6406 12.4479 71.7578 11.9245 71.7578 11.2734C71.7578 10.5807 71.6615 10.0365 71.4688 9.64062C71.2812 9.24479 71.0156 8.96875 70.6719 8.8125C70.3333 8.65104 69.9141 8.57031 69.4141 8.57031H68.4844L68.4766 13.9375H69.5ZM75.6172 19C75.5391 19 75.474 18.9531 75.4219 18.8594C75.375 18.7656 75.3516 18.6797 75.3516 18.6016C75.3516 18.513 75.3698 18.4453 75.4062 18.3984C75.4427 18.3516 75.5104 18.3229 75.6094 18.3125C75.8906 18.2969 76.1224 18.2708 76.3047 18.2344C76.487 18.1979 76.6432 18.1276 76.7734 18.0234C76.9089 17.9193 76.9766 17.7656 76.9766 17.5625V9.35938C76.9766 9.15104 76.9036 8.99479 76.7578 8.89062C76.6172 8.78646 76.4531 8.71875 76.2656 8.6875C76.0781 8.65104 75.8438 8.6224 75.5625 8.60156C75.4479 8.59115 75.3724 8.57031 75.3359 8.53906C75.2995 8.5026 75.2812 8.42708 75.2812 8.3125C75.2812 8.23438 75.3047 8.15104 75.3516 8.0625C75.4036 7.96875 75.4688 7.91927 75.5469 7.91406H80.1797L81.1094 10.6797L82.8828 15.5391L85.3203 8.82031C85.4349 8.47135 85.5104 8.16927 85.5469 7.91406H89.7031C89.7812 7.91406 89.8438 7.96094 89.8906 8.05469C89.9427 8.14844 89.9688 8.23438 89.9688 8.3125C89.9688 8.40104 89.9505 8.46875 89.9141 8.51562C89.8776 8.5625 89.8099 8.59115 89.7109 8.60156C89.3932 8.6276 89.125 8.67969 88.9062 8.75781C88.6875 8.83073 88.5781 8.94531 88.5781 9.10156V17.5547C88.5781 17.7578 88.638 17.9115 88.7578 18.0156C88.8776 18.1198 89.0078 18.1875 89.1484 18.2188C89.2943 18.25 89.5 18.2812 89.7656 18.3125C89.8802 18.3229 89.9557 18.3464 89.9922 18.3828C90.0286 18.4141 90.0469 18.487 90.0469 18.6016C90.0469 18.6797 90.0208 18.7656 89.9688 18.8594C89.9219 18.9531 89.8594 19 89.7812 19H85.0859C85.0078 19 84.9427 18.9531 84.8906 18.8594C84.8438 18.7656 84.8203 18.6797 84.8203 18.6016C84.8203 18.513 84.8385 18.4453 84.875 18.3984C84.9115 18.3516 84.9792 18.3229 85.0781 18.3125C85.4062 18.2865 85.6901 18.2344 85.9297 18.1562C86.1693 18.0781 86.2891 17.9635 86.2891 17.8125V8.99219H86.0469L82.4297 19H82L78.0312 8.99219H77.7344V17.5547C77.7344 17.7578 77.8125 17.9141 77.9688 18.0234C78.125 18.1276 78.3021 18.1979 78.5 18.2344C78.6979 18.2656 78.9427 18.2917 79.2344 18.3125C79.349 18.3229 79.4245 18.3464 79.4609 18.3828C79.4974 18.4141 79.5156 18.487 79.5156 18.6016C79.5156 18.6797 79.4896 18.7656 79.4375 18.8594C79.3906 18.9531 79.3281 19 79.25 19H75.6172ZM95.9141 19.2344C95.4245 19.2344 95 19.1849 94.6406 19.0859C94.2812 18.987 94.0078 18.8984 93.8203 18.8203C93.6328 18.737 93.5208 18.6875 93.4844 18.6719C93.4062 18.6406 93.3177 18.5964 93.2188 18.5391C93.1615 18.5078 93.1042 18.4818 93.0469 18.4609C92.9948 18.4401 92.9505 18.4297 92.9141 18.4297C92.8255 18.4297 92.737 18.4844 92.6484 18.5938C92.4609 18.8073 92.2708 18.9141 92.0781 18.9141C91.9531 18.9141 91.8516 18.8802 91.7734 18.8125C91.7005 18.7396 91.6693 18.6484 91.6797 18.5391C91.6901 18.4349 91.6953 18.3151 91.6953 18.1797V17.875C91.6953 17.4583 91.6667 16.9062 91.6094 16.2188C91.5781 15.8125 91.5625 15.5729 91.5625 15.5C91.5625 15.1719 91.7057 15.0078 91.9922 15.0078C92.1068 15.0078 92.2031 15.0365 92.2812 15.0938C92.3594 15.1458 92.4141 15.2266 92.4453 15.3359C92.5547 15.7995 92.737 16.2734 92.9922 16.7578C93.2891 17.3047 93.7031 17.737 94.2344 18.0547C94.7656 18.3724 95.3255 18.5312 95.9141 18.5312C96.2318 18.5312 96.526 18.4766 96.7969 18.3672C97.0729 18.2578 97.2943 18.0859 97.4609 17.8516C97.6276 17.612 97.7083 17.3099 97.7031 16.9453C97.6979 16.5443 97.5755 16.1901 97.3359 15.8828C97.1016 15.5703 96.8151 15.3047 96.4766 15.0859C96.138 14.8672 95.6901 14.612 95.1328 14.3203C95.0807 14.2943 95.0339 14.2708 94.9922 14.25C94.9557 14.2292 94.9219 14.2109 94.8906 14.1953C94.25 13.862 93.7292 13.5599 93.3281 13.2891C92.9271 13.013 92.5807 12.6641 92.2891 12.2422C92.0026 11.8151 91.8568 11.3125 91.8516 10.7344C91.8464 10.1042 92.0078 9.5599 92.3359 9.10156C92.6641 8.63802 93.112 8.28646 93.6797 8.04688C94.2474 7.80729 94.8776 7.6875 95.5703 7.6875C95.9609 7.6875 96.2891 7.71354 96.5547 7.76562C96.8203 7.81771 97.0911 7.88802 97.3672 7.97656C97.5964 8.04948 97.7526 8.08594 97.8359 8.08594C97.9141 8.08594 97.974 8.07552 98.0156 8.05469C98.0573 8.03385 98.099 8.0026 98.1406 7.96094C98.1875 7.91927 98.2266 7.88802 98.2578 7.86719C98.3151 7.83073 98.388 7.8125 98.4766 7.8125C98.6016 7.8125 98.7188 7.84375 98.8281 7.90625C98.9375 7.96354 98.9922 8.03125 98.9922 8.10938C98.9974 8.49479 99.0391 9.04167 99.1172 9.75C99.1641 10.1615 99.1875 10.4193 99.1875 10.5234C99.1875 10.6797 99.1432 10.7943 99.0547 10.8672C98.9661 10.9349 98.8568 10.9688 98.7266 10.9688C98.6328 10.9688 98.5521 10.9531 98.4844 10.9219C98.4219 10.8906 98.3776 10.8464 98.3516 10.7891C98.2995 10.4974 98.1849 10.1693 98.0078 9.80469C97.8307 9.4349 97.5495 9.10156 97.1641 8.80469C96.7839 8.5026 96.2943 8.35156 95.6953 8.35156C95.1432 8.35156 94.6901 8.47396 94.3359 8.71875C93.9818 8.95833 93.8047 9.34375 93.8047 9.875C93.8047 10.2448 93.9297 10.5833 94.1797 10.8906C94.4349 11.1979 94.7422 11.4688 95.1016 11.7031C95.4661 11.9323 95.9375 12.1979 96.5156 12.5C97.2031 12.8594 97.7656 13.1849 98.2031 13.4766C98.6458 13.7682 99.0234 14.1302 99.3359 14.5625C99.6484 14.9896 99.8047 15.4844 99.8047 16.0469C99.8047 16.6979 99.6302 17.2656 99.2812 17.75C98.9323 18.2292 98.4609 18.5964 97.8672 18.8516C97.2786 19.1068 96.6276 19.2344 95.9141 19.2344Z" fill="#6366F1"/>
<path d="M5.42871 20C5.33594 20 5.25863 19.9443 5.19678 19.833C5.14111 19.7217 5.11328 19.6196 5.11328 19.5269C5.11328 19.4217 5.13493 19.3413 5.17822 19.2856C5.22152 19.23 5.30192 19.196 5.41943 19.1836C6.20492 19.1217 6.59766 18.9238 6.59766 18.5898V8.55176C6.59766 8.30436 6.53271 8.11882 6.40283 7.99512C6.27295 7.87142 6.12451 7.79411 5.95752 7.76318C5.79671 7.72607 5.56787 7.68896 5.271 7.65186C5.13493 7.63949 5.04525 7.61475 5.00195 7.57764C4.95866 7.53434 4.93701 7.44466 4.93701 7.30859C4.93701 7.21582 4.96484 7.11377 5.02051 7.00244C5.08236 6.89111 5.15967 6.83545 5.25244 6.83545H7.98926C8.50879 6.83545 9.21387 6.81689 10.1045 6.77979C10.8714 6.75505 11.3971 6.74268 11.6816 6.74268C15.1019 6.74268 16.812 8.03841 16.812 10.6299C16.812 11.4834 16.6203 12.2256 16.2368 12.8564C15.8534 13.4811 15.2565 13.9697 14.4463 14.3223C13.6423 14.6748 12.6279 14.8511 11.4033 14.8511H9.70557V18.2837C9.70557 18.5249 9.82308 18.7104 10.0581 18.8403C10.2993 18.964 10.556 19.0475 10.8281 19.0908C11.1064 19.1279 11.4497 19.1589 11.8579 19.1836C11.994 19.196 12.0837 19.2238 12.127 19.2671C12.1702 19.3042 12.1919 19.3908 12.1919 19.5269C12.1919 19.6196 12.161 19.7217 12.0991 19.833C12.0435 19.9443 11.9692 20 11.8765 20H5.42871ZM10.7261 13.9604C11.4992 13.9604 12.1362 13.7223 12.6372 13.2461C13.1444 12.7699 13.3979 11.9627 13.3979 10.8247C13.3979 9.98975 13.299 9.34342 13.1011 8.88574C12.9093 8.42188 12.6217 8.10026 12.2383 7.9209C11.8548 7.73535 11.3507 7.64258 10.7261 7.64258H9.70557V13.9604H10.7261ZM18.3057 20C18.2067 20 18.1294 19.9598 18.0737 19.8794C18.0181 19.7928 17.9902 19.7062 17.9902 19.6196C17.9902 19.5145 18.0119 19.4341 18.0552 19.3784C18.1047 19.3166 18.1851 19.2826 18.2964 19.2764C18.5871 19.2516 18.8376 19.2021 19.0479 19.1279C19.2581 19.0475 19.3633 18.93 19.3633 18.7754L19.3726 12.7822C19.3726 12.4977 19.32 12.2812 19.2148 12.1328C19.1159 11.9844 18.9953 11.8854 18.853 11.8359C18.717 11.7865 18.5376 11.7463 18.3149 11.7153C18.1232 11.6844 18.015 11.6659 17.9902 11.6597C17.916 11.6287 17.8604 11.5854 17.8232 11.5298C17.7861 11.4741 17.7676 11.3937 17.7676 11.2886C17.7676 11.202 17.7861 11.1154 17.8232 11.0288C17.8665 10.936 17.9222 10.8866 17.9902 10.8804C19.3633 10.7938 20.7085 10.7505 22.0259 10.7505C22.0939 10.7505 22.1558 10.7814 22.2114 10.8433C22.2733 10.8989 22.3042 10.9917 22.3042 11.1216V18.4692C22.3042 18.6857 22.3599 18.8527 22.4712 18.9702C22.5887 19.0815 22.7217 19.1558 22.8701 19.1929C23.0186 19.2238 23.2072 19.2516 23.436 19.2764C23.5721 19.2887 23.6618 19.3166 23.7051 19.3599C23.7484 19.397 23.77 19.4836 23.77 19.6196C23.77 19.7 23.7391 19.7835 23.6772 19.8701C23.6216 19.9567 23.5474 20 23.4546 20H18.3057ZM20.7734 9.14551C20.4518 9.14551 20.158 9.07438 19.8921 8.93213C19.6261 8.78369 19.4159 8.58268 19.2612 8.3291C19.1066 8.06934 19.0293 7.77555 19.0293 7.44775C19.0293 7.11995 19.1066 6.82617 19.2612 6.56641C19.4159 6.30664 19.6261 6.10563 19.8921 5.96338C20.158 5.81494 20.4518 5.74072 20.7734 5.74072C21.0889 5.74072 21.3796 5.81494 21.6455 5.96338C21.9115 6.10563 22.1217 6.30664 22.2764 6.56641C22.4372 6.82617 22.5176 7.11995 22.5176 7.44775C22.5176 7.77555 22.4372 8.06934 22.2764 8.3291C22.1217 8.58268 21.9115 8.78369 21.6455 8.93213C21.3796 9.07438 21.0889 9.14551 20.7734 9.14551ZM25.041 20C24.9482 20 24.8709 19.9443 24.8091 19.833C24.7534 19.7217 24.7256 19.6196 24.7256 19.5269C24.7256 19.4217 24.7472 19.3413 24.7905 19.2856C24.8338 19.23 24.9142 19.196 25.0317 19.1836C25.3657 19.165 25.641 19.1341 25.8574 19.0908C26.0739 19.0475 26.2594 18.964 26.4141 18.8403C26.5749 18.7166 26.6553 18.5342 26.6553 18.293V8.55176C26.6553 8.30436 26.5687 8.11882 26.3955 7.99512C26.2285 7.87142 26.0337 7.79102 25.811 7.75391C25.5884 7.71061 25.3101 7.6766 24.9761 7.65186C24.84 7.63949 24.7503 7.61475 24.707 7.57764C24.6637 7.53434 24.6421 7.44466 24.6421 7.30859C24.6421 7.21582 24.6699 7.11686 24.7256 7.01172C24.7874 6.90039 24.8647 6.84163 24.9575 6.83545H30.895V6.88184L34.0029 15.5283L36.9717 7.65186C37.0088 7.55908 37.0428 7.42301 37.0737 7.24365C37.1108 7.06429 37.1294 6.92822 37.1294 6.83545H42.4824C42.5752 6.83545 42.6494 6.89111 42.7051 7.00244C42.7669 7.11377 42.7979 7.21582 42.7979 7.30859C42.7979 7.41374 42.7762 7.49414 42.7329 7.5498C42.6896 7.60547 42.6092 7.63949 42.4917 7.65186C41.5949 7.71989 41.1465 7.91781 41.1465 8.24561V18.2837C41.1465 18.5311 41.2176 18.7166 41.3599 18.8403C41.5021 18.9578 41.6567 19.0352 41.8237 19.0723C41.9907 19.1094 42.2319 19.1465 42.5474 19.1836C42.6834 19.196 42.7731 19.2238 42.8164 19.2671C42.8597 19.3042 42.8813 19.3908 42.8813 19.5269C42.8813 19.6196 42.8504 19.7217 42.7886 19.833C42.7329 19.9443 42.6587 20 42.5659 20H36.582C36.4893 20 36.4119 19.9443 36.3501 19.833C36.2944 19.7217 36.2666 19.6196 36.2666 19.5269C36.2666 19.4217 36.2882 19.3413 36.3315 19.2856C36.3748 19.23 36.4552 19.196 36.5728 19.1836C36.9624 19.1527 37.2995 19.0908 37.584 18.998C37.8685 18.9053 38.0107 18.7692 38.0107 18.5898V8.11572H37.751L33.2979 20H32.769L27.9077 8.11572H27.5552V18.2837C27.5552 18.5249 27.6479 18.7104 27.8335 18.8403C28.019 18.964 28.2293 19.0475 28.4644 19.0908C28.6994 19.1279 28.9901 19.1589 29.3364 19.1836C29.4725 19.196 29.5622 19.2238 29.6055 19.2671C29.6488 19.3042 29.6704 19.3908 29.6704 19.5269C29.6704 19.6196 29.6395 19.7217 29.5776 19.833C29.522 19.9443 29.4478 20 29.355 20H25.041ZM50.062 20.2783C49.4683 20.2783 48.9395 20.2196 48.4756 20.1021C48.0117 19.9845 47.6592 19.8794 47.418 19.7866C47.1829 19.6938 47.0407 19.6382 46.9912 19.6196C46.8923 19.5825 46.7747 19.5299 46.6387 19.4619C46.6201 19.4557 46.5799 19.4372 46.5181 19.4062C46.4562 19.3753 46.4006 19.3599 46.3511 19.3599C46.283 19.3599 46.2243 19.3784 46.1748 19.4155C46.1315 19.4526 46.0789 19.5052 46.0171 19.5732C45.8934 19.7155 45.7759 19.8145 45.6646 19.8701C45.5594 19.9258 45.4481 19.9536 45.3306 19.9536C45.1698 19.9536 45.043 19.9134 44.9502 19.833C44.8574 19.7464 44.8141 19.6382 44.8203 19.5083C44.8327 19.3722 44.8389 19.2331 44.8389 19.0908V18.7197C44.8389 18.3053 44.8234 17.8879 44.7925 17.4673C44.7677 17.0467 44.7523 16.8024 44.7461 16.7344C44.7152 16.3509 44.6997 16.0881 44.6997 15.9458C44.6997 15.5129 44.8791 15.2964 45.2378 15.2964C45.5347 15.2964 45.7202 15.4263 45.7944 15.686C45.8625 15.9458 45.9429 16.2025 46.0356 16.4561C46.1284 16.7096 46.2583 16.9818 46.4253 17.2725C46.8026 17.9219 47.3221 18.4445 47.9839 18.8403C48.6457 19.2362 49.3631 19.4341 50.1362 19.4341C50.495 19.4341 50.8289 19.3722 51.1382 19.2485C51.4474 19.1248 51.6948 18.9393 51.8804 18.6919C52.0721 18.4383 52.168 18.1322 52.168 17.7734C52.168 17.2786 52.0319 16.8488 51.7598 16.4839C51.4876 16.1128 51.1567 15.8005 50.7671 15.5469C50.3836 15.2871 49.8641 14.9871 49.2085 14.647L48.624 14.3408C47.8324 13.9202 47.2015 13.5553 46.7314 13.2461C46.2676 12.9307 45.8594 12.5225 45.5068 12.0215C45.1605 11.5205 44.9873 10.9237 44.9873 10.231C44.9873 9.50732 45.1852 8.86719 45.5811 8.31055C45.9831 7.75391 46.5397 7.32406 47.251 7.021C47.9684 6.71794 48.7848 6.56641 49.7002 6.56641C50.1764 6.56641 50.5754 6.59733 50.897 6.65918C51.2248 6.72103 51.5433 6.80452 51.8525 6.90967C51.8835 6.92204 51.9701 6.94987 52.1123 6.99316C52.2607 7.03027 52.3906 7.04883 52.502 7.04883C52.5947 7.04883 52.6628 7.03646 52.7061 7.01172C52.7555 6.98698 52.805 6.94987 52.8545 6.90039C52.9102 6.84473 52.9565 6.80452 52.9937 6.77979C53.0617 6.73649 53.1483 6.71484 53.2534 6.71484C53.4142 6.71484 53.5627 6.75195 53.6987 6.82617C53.841 6.89421 53.9121 6.97461 53.9121 7.06738C53.9183 7.38281 53.943 7.77246 53.9863 8.23633C54.0296 8.7002 54.0575 9.00016 54.0698 9.13623C54.1193 9.54443 54.144 9.80729 54.144 9.9248C54.144 10.1165 54.0884 10.2557 53.9771 10.3423C53.8719 10.4227 53.7327 10.4629 53.5596 10.4629C53.3369 10.4629 53.1823 10.3918 53.0957 10.2495C53.3307 10.7196 53.2967 10.5711 52.9937 9.8042C52.6968 9.03727 52.3071 8.44352 51.8247 8.02295C51.3485 7.59619 50.6867 7.38281 49.8394 7.38281C49.2023 7.38281 48.6642 7.5127 48.2251 7.77246C47.7922 8.02604 47.5757 8.43115 47.5757 8.98779C47.5757 9.45785 47.7334 9.8846 48.0488 10.2681C48.3643 10.6453 48.7477 10.9731 49.1992 11.2515C49.6569 11.5298 50.2383 11.8452 50.9434 12.1978C51.7721 12.606 52.4587 12.9925 53.0029 13.3574C53.5534 13.7161 54.0142 14.1522 54.3853 14.6655C54.7625 15.1789 54.9512 15.7757 54.9512 16.4561C54.9512 17.223 54.7285 17.8971 54.2832 18.4785C53.8441 19.0537 53.2503 19.499 52.502 19.8145C51.7598 20.1237 50.9465 20.2783 50.062 20.2783Z" fill="#6366F1"/>
</svg>
